{"title":"Avatar-AC3-5,1-DVDRip[Eng]2009","uid":5496297,"size":2361332549,"categoryP":"video","categoryS":"movies","magnet":"?xt=urn:btih:171999f5b8f04250862c7ec106d087e05b9ca830&amp;dn=Avatar-AC3-5%2C1-DVDRip%5BEng%5D2009&amp;tr=udp%3A%2F%2Ftracker.openbittorrent.com%3A80&amp;tr=udp%3A%2F%2Fopen.demonii.com%3A1337&amp;tr=udp%3A%2F%2Ftracker.coppersurfer.tk%3A6969&amp;tr=udp%3A%2F%2Fexodus.desync.com%3A6969","seeders":0,"leechers":0,"uploader":"FatFreddy31","files":-1,"time":1271289069,"description":" &lt;a href=&quot;http://www.imdb.com/title/tt0499549/&quot; rel=&quot;nofollow&quot; target=&quot;_NEW&quot;&gt;http://www.imdb.com/title/tt0499549/&lt;/a&gt;\n &lt;a href=&quot;\nhttp://www.avatarmovie.com/&quot; rel=&quot;nofollow&quot; target=&quot;_NEW&quot;&gt;\nhttp://www.avatarmovie.com/&lt;/a&gt;\n\nUser Rating:8.5/10 - 220,261 votes\n\nAction,Adventure,Fantasy,Sci-Fi\n\nDirector:James Cameron\n\nCast:Sam Worthington/Zoe Saldana/Sigourney Weaver/Stephen Lang, and others.\n\nPlot:\nA paraplegic marine dispatched to the moon Pandora on a unique mission becomes torn between following his orders and protecting the world he feels is his home....\n\nInfo:\n\nCovers included.\n\nSubtitles: Dutch, English (srt).\n\nGeneral\nComplete name                    : Avatar-AC3-5,1-DVDRip[Eng]2009.avi\nFormat                           : AVI\nFormat/Info                      : Audio Video Interleave\nFormat profile                   : OpenDML\nFile size                        : 2.20 GiB\nDuration                         : 2h 35mn\nOverall bit rate                 : 2 028 Kbps\nWriting application              : VirtualDubMod 1.5.4.1 (build 2178/release)\nWriting library                  : VirtualDubMod build 2178/release\n\nVideo\nID                               : 0\nFormat                           : MPEG-4 Visual\nFormat profile                   : Simple@L3\nFormat settings, BVOP            : No\nFormat settings, QPel            : No\nFormat settings, GMC             : No warppoints\nFormat settings, Matrix          : Default (H.263)\nCodec ID                         : XVID\nCodec ID/Hint                    : XviD\nDuration                         : 2h 35mn\nBit rate                         : 1 632 Kbps\nWidth                            : 704 pixels\nHeight                           : 400 pixels\nDisplay aspect ratio             : 16:9\nFrame rate                       : 25.000 fps\nResolution                       : 24 bits\nColorimetry                      : 4:2:0\nScan type                        : Progressive\nBits/(Pixel*Frame)               : 0.232\nStream size                      : 1.77 GiB (80%)\nWriting library                  : XviD 1.1.2 (UTC 2006-11-01)\n\nAudio\nID                               : 1\nFormat                           : AC-3\nFormat/Info                      : Audio Coding 3\nCodec ID                         : 2000\nDuration                         : 2h 35mn\nBit rate mode                    : Constant\nBit rate                         : 384 Kbps\nChannel(s)                       : 6 channels\nChannel positions                : Front: L C R, Surround: L R, LFE\nSampling rate                    : 48.0 KHz\nStream size                      : 426 MiB (19%)\nAlignment                        : Split accross interleaves\nInterleave, duration             : 40 ms (1.00 video frame)\nInterleave, preload duration     : 500 ms\n\nEnjoy....\n\nGreetings to ZARCK, 2lions, and thanks to sendleech/Fast Release Team for the source.","torrent":{"xt":"urn:btih:171999f5b8f04250862c7ec106d087e05b9ca830","amp;dn":"Avatar-AC3-5%2C1-DVDRip%5BEng%5D2009","amp;tr":["udp%3A%2F%2Ftracker.openbittorrent.com%3A80","udp%3A%2F%2Fopen.demonii.com%3A1337","udp%3A%2F%2Ftracker.coppersurfer.tk%3A6969","udp%3A%2F%2Fexodus.desync.com%3A6969"],"infoHash":"171999f5b8f04250862c7ec106d087e05b9ca830","infoHashBuffer":{"type":"Buffer","data":[23,25,153,245,184,240,66,80,134,44,126,193,6,208,135,224,91,156,168,48]},"announce":[],"urlList":[]}}